<mxfile host="app.diagrams.net" modified="2020-11-30T10:50:12.374Z" agent="5.0 (Windows NT 10.0; Win64; x64) AppleWebKit/537.36 (KHTML, like Gecko) Chrome/86.0.4240.185 YaBrowser/20.11.2.78 Yowser/2.5 Safari/537.36" etag="9e8XPm9qRiIfLrp3tUxQ" version="13.10.4" type="github">
  <diagram id="rn-WQwwBUhwU8Y1M9SE_" name="Page-1">
    <mxGraphModel dx="868" dy="477" grid="1" gridSize="10" guides="1" tooltips="1" connect="1" arrows="1" fold="1" page="1" pageScale="1" pageWidth="827" pageHeight="1169" math="0" shadow="0">
      <root>
        <mxCell id="0" />
        <mxCell id="1" parent="0" />
        <mxCell id="M6hsQG81Ay1pPbGrwZob-3" value="&#xa;&#xa;&lt;span style=&quot;color: rgb(33, 37, 41); font-family: arial, &amp;quot;helvetica neue&amp;quot;, sans-serif; font-size: 16px; font-style: normal; font-weight: 400; letter-spacing: normal; text-align: left; text-indent: 0px; text-transform: none; word-spacing: 0px; background-color: rgb(255, 255, 255); display: inline; float: none;&quot;&gt;Scanner&lt;/span&gt;&#xa;&#xa;" style="ellipse;whiteSpace=wrap;html=1;aspect=fixed;" vertex="1" parent="1">
          <mxGeometry x="480" y="270" width="80" height="80" as="geometry" />
        </mxCell>
        <mxCell id="M6hsQG81Ay1pPbGrwZob-4" value="&#xa;&#xa;&lt;span style=&quot;color: rgb(33, 37, 41); font-family: arial, &amp;quot;helvetica neue&amp;quot;, sans-serif; font-size: 16px; font-style: normal; font-weight: 400; letter-spacing: normal; text-align: left; text-indent: 0px; text-transform: none; word-spacing: 0px; background-color: rgb(255, 255, 255); display: inline; float: none;&quot;&gt;StartUI&lt;/span&gt;&#xa;&#xa;" style="ellipse;whiteSpace=wrap;html=1;aspect=fixed;" vertex="1" parent="1">
          <mxGeometry x="220" y="90" width="80" height="80" as="geometry" />
        </mxCell>
        <mxCell id="M6hsQG81Ay1pPbGrwZob-5" value="&#xa;&#xa;&lt;span style=&quot;color: rgb(33, 37, 41); font-family: arial, &amp;quot;helvetica neue&amp;quot;, sans-serif; font-size: 16px; font-style: normal; font-weight: 400; letter-spacing: normal; text-align: left; text-indent: 0px; text-transform: none; word-spacing: 0px; background-color: rgb(255, 255, 255); display: inline; float: none;&quot;&gt;Tracker&lt;/span&gt;&#xa;&#xa;" style="ellipse;whiteSpace=wrap;html=1;aspect=fixed;" vertex="1" parent="1">
          <mxGeometry x="480" y="90" width="80" height="80" as="geometry" />
        </mxCell>
        <mxCell id="M6hsQG81Ay1pPbGrwZob-7" value="&#xa;&#xa;&lt;span style=&quot;color: rgb(33, 37, 41); font-family: arial, &amp;quot;helvetica neue&amp;quot;, sans-serif; font-size: 16px; font-style: normal; font-weight: 400; letter-spacing: normal; text-align: left; text-indent: 0px; text-transform: none; word-spacing: 0px; background-color: rgb(255, 255, 255); display: inline; float: none;&quot;&gt;Item&lt;/span&gt;&#xa;&#xa;" style="ellipse;whiteSpace=wrap;html=1;aspect=fixed;" vertex="1" parent="1">
          <mxGeometry x="220" y="270" width="80" height="80" as="geometry" />
        </mxCell>
        <mxCell id="M6hsQG81Ay1pPbGrwZob-9" value="" style="endArrow=classic;html=1;exitX=0;exitY=1;exitDx=0;exitDy=0;" edge="1" parent="1" source="M6hsQG81Ay1pPbGrwZob-5" target="M6hsQG81Ay1pPbGrwZob-7">
          <mxGeometry width="50" height="50" relative="1" as="geometry">
            <mxPoint x="484" y="153" as="sourcePoint" />
            <mxPoint x="380" y="280" as="targetPoint" />
          </mxGeometry>
        </mxCell>
        <mxCell id="M6hsQG81Ay1pPbGrwZob-10" value="" style="endArrow=classic;html=1;entryX=0;entryY=0;entryDx=0;entryDy=0;" edge="1" parent="1" source="M6hsQG81Ay1pPbGrwZob-4" target="M6hsQG81Ay1pPbGrwZob-3">
          <mxGeometry width="50" height="50" relative="1" as="geometry">
            <mxPoint x="400" y="290" as="sourcePoint" />
            <mxPoint x="450" y="240" as="targetPoint" />
          </mxGeometry>
        </mxCell>
        <mxCell id="M6hsQG81Ay1pPbGrwZob-11" value="" style="endArrow=classic;html=1;entryX=0;entryY=0.5;entryDx=0;entryDy=0;exitX=1;exitY=0.5;exitDx=0;exitDy=0;" edge="1" parent="1" source="M6hsQG81Ay1pPbGrwZob-4" target="M6hsQG81Ay1pPbGrwZob-5">
          <mxGeometry width="50" height="50" relative="1" as="geometry">
            <mxPoint x="360" y="155" as="sourcePoint" />
            <mxPoint x="410" y="105" as="targetPoint" />
          </mxGeometry>
        </mxCell>
        <mxCell id="M6hsQG81Ay1pPbGrwZob-12" value="" style="endArrow=classic;html=1;exitX=0.5;exitY=1;exitDx=0;exitDy=0;" edge="1" parent="1" source="M6hsQG81Ay1pPbGrwZob-4">
          <mxGeometry width="50" height="50" relative="1" as="geometry">
            <mxPoint x="160" y="260" as="sourcePoint" />
            <mxPoint x="260" y="270" as="targetPoint" />
          </mxGeometry>
        </mxCell>
      </root>
    </mxGraphModel>
  </diagram>
</mxfile>
